<?xml version="1.0" standalone="no"?>
<!DOCTYPE svg PUBLIC "-//W3C//DTD SVG 20010904//EN"
 "http://www.w3.org/TR/2001/REC-SVG-20010904/DTD/svg10.dtd">
<svg version="1.0" xmlns="http://www.w3.org/2000/svg"
 width="100.000000pt" height="50.000000pt" viewBox="0 0 100.000000 50.000000"
 preserveAspectRatio="xMidYMid meet">
<metadata>
Created by potrace 1.16, written by Peter Selinger 2001-2019
</metadata>
<g transform="translate(0.000000,50.000000) scale(0.031447,-0.015723)"
fill="#000000" stroke="none">
<path d="M2026 2658 c-2 -7 -23 -96 -46 -198 -62 -273 -128 -435 -178 -435
-11 0 -24 -4 -28 -8 -4 -4 3 -7 15 -7 13 0 21 -4 19 -9 -6 -19 -130 -141 -142
-141 -7 0 -21 9 -31 20 -18 20 -18 21 23 63 23 23 70 65 106 92 80 63 114 129
156 305 35 145 34 136 17 143 -10 4 -13 -2 -10 -18 3 -12 -7 -65 -21 -118 -14
-52 -26 -103 -26 -114 0 -11 -11 -30 -24 -42 -13 -13 -27 -37 -30 -54 -3 -18
-15 -38 -26 -45 -19 -11 -20 -10 -20 23 0 19 9 49 20 67 11 18 20 49 20 68 l0
35 -87 -86 c-134 -130 -162 -152 -179 -138 -8 6 -14 19 -14 29 0 15 87 96 190
178 14 11 22 23 19 26 -7 7 -78 -39 -128 -83 -46 -40 -58 -29 -26 24 14 24 25
58 25 77 l0 33 -82 -81 c-114 -110 -155 -144 -178 -144 -15 0 -20 7 -20 24 0
19 24 46 100 112 56 48 98 89 95 92 -9 9 -115 -69 -142 -105 -14 -18 -29 -31
-33 -28 -6 4 -109 -77 -175 -138 -11 -10 -39 -33 -62 -50 l-42 -32 -1 -167 0
-168 313 0 314 0 52 58 c63 69 105 153 97 199 -3 19 0 36 8 42 7 6 19 30 26
53 8 24 23 55 34 71 11 15 23 51 27 80 3 28 17 88 29 132 12 44 27 98 34 120
6 22 17 40 24 41 43 4 42 0 42 109 l0 105 -25 0 c-14 0 -27 -6 -29 -12z"/>
</g>
</svg>
